<svg width="1000" height="1000" xmlns="http://www.w3.org/2000/svg" version="1.1" xml:space="preserve">
 <g>
  <title>Layer 1</title>
  <path fill="#78938a" stroke="#78938a" stroke-width="18" opacity="undefined" d="m501,808c-191.16022,0 -346,-154.83978 -346,-346c0,-191.16022 154.83978,-346 346,-346c191.16022,0 346,154.83978 346,346c0,191.16022 -154.83978,346 -346,346z" id="svg_31"/>
  <g id="svg_1">
   <g id="svg_2">
    <rect x="387.594" y="498.626" width="228.812" height="25.558" id="svg_3"/>
   </g>
  </g>
  <g id="svg_4">
   <g id="svg_5">
    <rect x="387.594" y="440.31" width="228.812" height="26.969" id="svg_6"/>
   </g>
  </g>
  <g id="svg_7">
   <g id="svg_8">
    <rect x="388.594" y="555.531" width="228.812" height="25.569" id="svg_9"/>
   </g>
  </g>
  <g id="svg_10">
   <g id="svg_11">
    <polygon points="502,192.61700439453125 247.06600952148438,287.5979919433594 247.06600952148438,345.4539794921875 262.739013671875,345.4539794921875 290.78399658203125,345.4539794921875 713.2160034179688,345.4539794921875 741.260986328125,345.4539794921875 756.9339599609375,345.4539794921875 756.9339599609375,287.5979919433594 " id="svg_12"/>
   </g>
  </g>
  <g id="svg_13">
   <g id="svg_14">
    <path d="m713.216,638.036l0,-261.235l0,-0.857l-15.673,0l-15.673,0l-359.739,0l-15.673,0l-15.674,0l0,0.857l0,261.235l-44.784,0l0,31.347l44.784,0l65.463,0l291.506,0l65.463,0l44.784,0l0,-31.347l-44.784,0zm-65.463,0l-31.347,0l0,-25.59l-228.812,0l0,25.59l-31.347,0l0,-229.073l291.506,0l0,229.073z" id="svg_15"/>
   </g>
  </g>
  <g id="svg_16"/>
  <g id="svg_17"/>
  <g id="svg_18"/>
  <g id="svg_19"/>
  <g id="svg_20"/>
  <g id="svg_21"/>
  <g id="svg_22"/>
  <g id="svg_23"/>
  <g id="svg_24"/>
  <g id="svg_25"/>
  <g id="svg_26"/>
  <g id="svg_27"/>
  <g id="svg_28"/>
  <g id="svg_29"/>
  <g id="svg_30"/>
 </g>

</svg>