<svg width="1000" height="1000" xmlns="http://www.w3.org/2000/svg" xml:space="preserve" version="1.1">

 <g>
  <title>Layer 1</title>
  <path id="svg_31" d="m502,808c-191.16022,0 -346,-154.83978 -346,-346c0,-191.16022 154.83978,-346 346,-346c191.16022,0 346,154.83978 346,346c0,191.16022 -154.83978,346 -346,346z" opacity="undefined" stroke-width="18" stroke="#4675f4" fill="#4675f4"/>
  <g id="svg_1">
   <g id="svg_2">
    <rect id="svg_3" height="25.558" width="228.812" y="498.626" x="387.594"/>
   </g>
  </g>
  <g id="svg_4">
   <g id="svg_5">
    <rect id="svg_6" height="26.969" width="228.812" y="440.31" x="387.594"/>
   </g>
  </g>
  <g id="svg_7">
   <g id="svg_8">
    <rect id="svg_9" height="25.569" width="228.812" y="555.531" x="388.594"/>
   </g>
  </g>
  <g id="svg_10">
   <g id="svg_11">
    <polygon id="svg_12" points="502,192.61700439453125 247.06600952148438,287.5979919433594 247.06600952148438,345.4539794921875 262.739013671875,345.4539794921875 290.78399658203125,345.4539794921875 713.2160034179688,345.4539794921875 741.260986328125,345.4539794921875 756.9339599609375,345.4539794921875 756.9339599609375,287.5979919433594 "/>
   </g>
  </g>
  <g id="svg_13">
   <g id="svg_14">
    <path id="svg_15" d="m713.216,638.036l0,-261.235l0,-0.857l-15.673,0l-15.673,0l-359.739,0l-15.673,0l-15.674,0l0,0.857l0,261.235l-44.784,0l0,31.347l44.784,0l65.463,0l291.506,0l65.463,0l44.784,0l0,-31.347l-44.784,0zm-65.463,0l-31.347,0l0,-25.59l-228.812,0l0,25.59l-31.347,0l0,-229.073l291.506,0l0,229.073z"/>
   </g>
  </g>
  <g id="svg_16"/>
  <g id="svg_17"/>
  <g id="svg_18"/>
  <g id="svg_19"/>
  <g id="svg_20"/>
  <g id="svg_21"/>
  <g id="svg_22"/>
  <g id="svg_23"/>
  <g id="svg_24"/>
  <g id="svg_25"/>
  <g id="svg_26"/>
  <g id="svg_27"/>
  <g id="svg_28"/>
  <g id="svg_29"/>
  <g id="svg_30"/>
 </g>
</svg>