<svg width="1000" height="1000" xmlns="http://www.w3.org/2000/svg" version="1.1" xml:space="preserve">
 <g>
  <title>Layer 1</title>
  <path fill="#fa8072" stroke="#78938a" stroke-width="18" opacity="undefined" d="m523.67147,781.32768c-191.16022,0 -346,-154.83978 -346,-346c0,-191.16022 154.83978,-346 346,-346c191.16022,0 346,154.83978 346,346c0,191.16022 -154.83978,346 -346,346z" id="svg_31"/>
  <g id="svg_16"/>
  <g id="svg_17"/>
  <g id="svg_18"/>
  <g id="svg_19"/>
  <g id="svg_20"/>
  <g id="svg_21"/>
  <g id="svg_22"/>
  <g id="svg_23"/>
  <g id="svg_24"/>
  <g id="svg_25"/>
  <g id="svg_26"/>
  <g id="svg_27"/>
  <g id="svg_28"/>
  <g id="svg_29"/>
  <g id="svg_30"/>
  <g id="svg_1">
   <g id="svg_2">
    <g id="svg_3">
     <path id="svg_4" d="m583.05899,242.54419l-123.34418,0c-7.17566,0 -11.487,5.55223 -11.487,12.53895l0,164.47747c0,6.98671 4.31134,12.76468 11.487,12.76468l123.34418,0c53.79177,0 97.5584,-42.56525 97.5584,-94.89055s-43.76663,-94.89055 -97.5584,-94.89055zm0,164.47858l-108.84325,0l0,-139.17384l108.84325,0c39.46443,0 71.57046,31.21615 71.57046,69.58692s-32.10489,69.58692 -71.57046,69.58692z"/>
    </g>
   </g>
   <g id="svg_5">
    <g id="svg_6">
     <path id="svg_7" d="m602.5508,153.97983l-246.79001,0c-7.17566,0 -11.487,5.55223 -11.487,12.53895l0,544.04189c0,6.98671 4.31134,12.76468 11.487,12.76468l103.95402,0c7.17566,0 14.50094,-5.77797 14.50094,-12.76468l0,-189.66879l128.33506,0c93.19909,0 170.53361,-73.89371 170.53361,-164.58422l0,-37.96267c0,-90.69607 -77.33452,-164.36516 -170.53361,-164.36516l-0.00001,0zm144.54568,202.32783c0,76.73488 -65.67278,139.27948 -144.54568,139.27948l-142.83599,0c-7.17566,0 -11.487,5.55223 -11.487,12.53895l0,189.89452l-77.96609,0l0,-518.73604l232.28908,0c78.8729,0 144.54568,62.31998 144.54568,139.06042l0,37.96267z"/>
    </g>
   </g>
   <g id="svg_8"/>
   <g id="svg_9"/>
   <g id="svg_10"/>
   <g id="svg_11"/>
   <g id="svg_12"/>
   <g id="svg_13"/>
   <g id="svg_14"/>
   <g id="svg_15"/>
   <g id="svg_32"/>
   <g id="svg_33"/>
   <g id="svg_34"/>
   <g id="svg_35"/>
   <g id="svg_36"/>
   <g id="svg_37"/>
   <g id="svg_38"/>
  </g>
 </g>

</svg>