<?xml version="1.0" encoding="iso-8859-1"?>
<!-- Generator: Adobe Illustrator 19.0.0, SVG Export Plug-In . SVG Version: 6.00 Build 0)  -->
<svg version="1.1" id="Layer_1" xmlns="http://www.w3.org/2000/svg" xmlns:xlink="http://www.w3.org/1999/xlink" x="0px" y="0px"
	 viewBox="0 0 512 512" style="enable-background:new 0 0 512 512;" xml:space="preserve">
<g>
	<g>
		<path d="M471.04,372.163V129.707c0-56.463-45.937-102.4-102.4-102.4h-16.131c-4.811-4.235-11.103-6.827-18.002-6.827
			c-15.057,0-27.307,12.25-27.307,27.307s12.25,27.307,27.307,27.307c6.899,0,13.189-2.591,18.002-6.827h16.131
			c33.878,0,61.44,27.562,61.44,61.44v242.456c-23.837,8.454-40.96,31.218-40.96,57.917c0,33.878,27.562,61.44,61.44,61.44
			S512,463.958,512,430.08C512,403.381,494.877,380.617,471.04,372.163z M450.56,450.56c-11.293,0-20.48-9.187-20.48-20.48
			s9.187-20.48,20.48-20.48s20.48,9.187,20.48,20.48S461.853,450.56,450.56,450.56z"/>
	</g>
</g>
<g>
	<g>
		<path d="M285.064,409.6H119.357c-8.454-23.836-31.218-40.96-57.917-40.96C27.562,368.64,0,396.202,0,430.08
			c0,33.878,27.562,61.44,61.44,61.44c26.699,0,49.463-17.124,57.917-40.96h182.672l87.091-87.091v-57.926L285.064,409.6z
			 M61.44,450.56c-11.293,0-20.48-9.187-20.48-20.48s9.187-20.48,20.48-20.48s20.48,9.187,20.48,20.48S72.733,450.56,61.44,450.56z"
			/>
	</g>
</g>
<g>
</g>
<g>
</g>
<g>
</g>
<g>
</g>
<g>
</g>
<g>
</g>
<g>
</g>
<g>
</g>
<g>
</g>
<g>
</g>
<g>
</g>
<g>
</g>
<g>
</g>
<g>
</g>
<g>
</g>
</svg>
