<svg width="512" height="512" xmlns="http://www.w3.org/2000/svg" xml:space="preserve" version="1.1">

 <g>
  <title>Layer 1</title>
  <ellipse ry="249.99998" rx="247.99999" id="svg_25" cy="253.99998" cx="255.00001" fill="#d8d8d8"/>
  <g id="svg_1">
   <g id="svg_2">
    <path fill="#306856" id="svg_3" d="m472.04,372.163l0,-242.456c0,-56.463 -45.937,-102.4 -102.4,-102.4l-16.131,0c-4.811,-4.235 -11.103,-6.827 -18.002,-6.827c-15.057,0 -27.307,12.25 -27.307,27.307s12.25,27.307 27.307,27.307c6.899,0 13.189,-2.591 18.002,-6.827l16.131,0c33.878,0 61.44,27.562 61.44,61.44l0,242.456c-23.837,8.454 -40.96,31.218 -40.96,57.917c0,33.878 27.562,61.44 61.44,61.44s61.44,-27.562 61.44,-61.44c0,-26.699 -17.123,-49.463 -40.96,-57.917zm-20.48,78.397c-11.293,0 -20.48,-9.187 -20.48,-20.48s9.187,-20.48 20.48,-20.48s20.48,9.187 20.48,20.48s-9.187,20.48 -20.48,20.48z"/>
   </g>
  </g>
  <g id="svg_4">
   <g id="svg_5">
    <path fill="#306856" id="svg_6" d="m285.064,409.6l-165.707,0c-8.454,-23.836 -31.218,-40.96 -57.917,-40.96c-33.878,0 -61.44,27.562 -61.44,61.44c0,33.878 27.562,61.44 61.44,61.44c26.699,0 49.463,-17.124 57.917,-40.96l182.672,0l87.091,-87.091l0,-57.926l-104.056,104.057zm-223.624,40.96c-11.293,0 -20.48,-9.187 -20.48,-20.48s9.187,-20.48 20.48,-20.48s20.48,9.187 20.48,20.48s-9.187,20.48 -20.48,20.48z"/>
   </g>
  </g>
  <g id="svg_7"/>
  <g id="svg_8"/>
  <g id="svg_9"/>
  <g id="svg_10"/>
  <g id="svg_11"/>
  <g id="svg_12"/>
  <g id="svg_13"/>
  <g id="svg_14"/>
  <g id="svg_15"/>
  <g id="svg_16"/>
  <g id="svg_17"/>
  <g id="svg_18"/>
  <g id="svg_19"/>
  <g id="svg_20"/>
  <g id="svg_21"/>
  <ellipse id="svg_27" cy="158" cx="184" fill="#d8d8d8"/>
 </g>
</svg>